PathFileType	4	(X/Y/Z)	C:/Users/beibeiliu/ov580/test_trc/User3\sequence.9_training_dense_right.trc
DataRate	CameraRate	NumFrames	NumMarkers	Units	OrigDataRate	OrigDataStartFrame	OrigNumFrames
120	120	12	19	mm	120	26	153
Frame#	Time	ThumbCMC			ThumbMCP			ThumbIP			ThumbTip			IndexMCP			IndexPIP			IndexTip			MiddleMCP			MiddlePIP			MiddleTip			RingMCP			RingPIP			RingTip			PinkyMCP			PinkyPIP			PinkyTip			BackHand1			BackHand2			BackHand3	
		X0	Y0	Z0	X1	Y1	Z1	X2	Y2	Z2	X3	Y3	Z3	X4	Y4	Z4	X5	Y5	Z5	X6	Y6	Z6	X7	Y7	Z7	X8	Y8	Z8	X9	Y9	Z9	X10	Y10	Z10	X11	Y11	Z11	X12	Y12	Z12	X13	Y13	Z13	X14	Y14	Z14	X15	Y15	Z15	X16	Y16	Z16	X17	Y17	Z17	X18	Y18	Z18	
25	0.208333	73.2481	-31.9741	0.843884	57.1696	-39.6995	-22.2415	44.0215	-43.9375	-43.8643	38.3389	-52.0633	-68.5966	97.4089	-13.3235	-64.9601	90.1083	-10.8711	-94.2833	80.7415	-20.3016	-119.615	128.013	-26.1709	-73.361	127.833	-30.2382	-100.989	114.666	-48.838	-133.901	130.698	-56.4062	-68.1269	116.154	-78.7011	-86.3604	96.6875	-96.8434	-79.5152	140.632	-73.6412	-54.76	123.112	-93.0551	-62.7591	101.5	-98.0447	-40.7505	141.364	-37.6712	-11.3686	140.236	-39.0243	17.2952	112.228	-20.2142	1.54066	
26	0.216667	76.1875	-33.9218	1.6478	59.3876	-40.051	-21.4215	41.7885	-42.8006	-44.8355	34.8597	-50.5414	-68.8225	96.2561	-13.0874	-64.2713	91.7152	-10.4833	-93.0565	76.2626	-18.1758	-118.615	125.102	-24.7954	-69.8858	125.599	-31.5238	-103.957	117.348	-48.4442	-129.866	127.299	-53.5774	-70.7697	113.195	-75.9901	-86.7563	94.8821	-100.672	-77.3063	139.911	-74.0574	-55.9579	118.33	-89.03	-63.9113	100.141	-94.8841	-43.1786	137.974	-36.36	-14.7449	140.153	-40.652	15.876	112.145	-18.8268	2.70085	
27	0.225	72.9159	-31.9042	5.125	55.2914	-39.0031	-19.7391	40.7207	-42.2211	-49.7922	32.1291	-50.1699	-67.5745	97.6804	-12.85	-67.1493	88.8082	-9.214	-92.975	75.5603	-17.2323	-119.635	124.403	-24.7452	-71.6709	125.629	-30.2023	-103.135	112.034	-47.3088	-133.062	130.116	-53.7245	-66.1267	113.76	-73.5737	-86.6257	95.7768	-100.297	-77.1774	139.191	-71.6376	-54.8818	122.786	-93.1284	-63.4251	97.1019	-93.8973	-42.9745	138.733	-36.0144	-16.028	137.192	-36.671	18.9474	111.185	-18.6237	-1.77144	
28	0.233333	73.641	-32.8897	2.23573	55.5785	-38.4511	-23.7843	41.8863	-42.6637	-45.8229	31.6549	-49.3	-67.5855	94.5744	-10.7114	-68.3907	86.6673	-8.83687	-93.0465	74.0829	-19.6115	-121.039	123.891	-24.3787	-72.8046	122.108	-27.7936	-101.722	112.574	-46.3926	-132.302	127.406	-54.3249	-69.492	115.86	-75.3533	-86.772	95.3751	-97.6313	-79.1308	137.389	-71.8252	-54.9713	119.141	-91.1444	-64.2809	99.9399	-98.3949	-43.7357	136.935	-35.1895	-13.6069	137.844	-39.2375	18.422	108.335	-17.9265	-2.42817	
29	0.241667	75.0293	-34.2561	4.60903	55.9283	-40.8067	-20.1838	38.2046	-42.7905	-47.1489	33.745	-50.5034	-70.2315	97.1803	-13.9601	-70.3518	88.2181	-10.8507	-93.5708	77.2339	-19.5089	-117.978	125.806	-25.7824	-73.6247	123.69	-31.1632	-103.652	109.842	-46.8488	-133.353	128.805	-55.5188	-66.7298	114.145	-76.5441	-86.8923	92.1908	-98.2599	-79.0343	137.512	-72.175	-53.3431	118.595	-93.2427	-63.1199	100.23	-99.5422	-42.7587	137.737	-37.128	-15.0547	139.413	-40.5363	17.9587	107.256	-19.7667	1.55105	
30	0.25	73.6406	-32.9471	2.23583	55.2755	-39.2074	-21.9412	40.6434	-43.7312	-44.9381	34.048	-50.8781	-65.6466	93.8864	-12.6673	-66.556	89.2929	-12.8626	-95.4616	78.2729	-19.3913	-117.754	124.88	-26.6882	-72.4906	123.706	-30.7326	-104.359	113.108	-48.255	-131.56	128.647	-55.9736	-68.804	113.696	-75.1669	-87.1681	93.2043	-101.446	-76.484	135.685	-71.845	-54.2538	116.76	-89.6129	-63.4404	98.6856	-96.2092	-43.5116	138.115	-38.8333	-13.8025	136.967	-40.8881	15.3882	109.173	-19.9393	1.49916	
31	0.258333	74.4187	-33.5164	3.68471	55.1658	-39.544	-24.3067	40.884	-43.1168	-45.9963	32.0186	-50.73	-68.9022	98.2019	-14.6044	-65.1416	87.9373	-11.2915	-95.6881	78.9114	-21.0512	-119.81	126.427	-25.9885	-73.3126	125.522	-31.0433	-102.765	111.872	-47.3281	-133.593	127.141	-55.4795	-69.45	114.895	-77.2767	-86.0915	93.4767	-96.6873	-79.9206	137.669	-73.6561	-53.5195	118.378	-89.9414	-62.8681	97.2365	-93.1405	-42.1712	136.549	-37.6325	-14.6594	136.305	-37.9924	17.9961	111.797	-21.9167	0.654172	
32	0.266667	72.2354	-32.8625	6.45229	53.821	-39.379	-23.8919	38.4977	-42.1649	-48.0768	33.2812	-51.6585	-69.8384	97.5519	-14.5714	-64.1681	84.768	-11.0388	-96.2651	76.456	-20.1137	-116.751	124.209	-27.016	-69.8929	121.728	-29.5369	-103.722	114.922	-48.7949	-131.711	128.046	-55.6048	-67.4943	114.765	-75.646	-86.6167	94.0397	-100.839	-77.5219	137.129	-72.2439	-52.7621	119.826	-94.2531	-61.4613	97.6153	-92.7866	-38.2099	139.887	-38.6275	-13.0623	139.343	-42.7744	15.7583	112.424	-21.8795	-2.29472	
33	0.275	73.8067	-34.6822	4.88363	53.8738	-40.2172	-18.7562	38.9081	-44.4324	-44.3382	31.5592	-51.0818	-69.4812	94.2381	-12.9558	-67.7006	86.8735	-11.7143	-94.0251	79.3617	-22.0336	-118.25	126.273	-30.1168	-69.501	123.404	-30.6218	-102.841	113.432	-46.4682	-130.435	128.292	-58.6941	-70.2506	115.921	-78.5984	-86.2967	97.361	-101.326	-77.8888	136.687	-74.7804	-55.1752	118.484	-94.5953	-61.7435	96.8322	-97.3425	-35.877	139.502	-37.3266	-13.383	137.446	-40.6833	13.9937	108.127	-21.2792	1.19539	
34	0.283333	75.3519	-35.6848	2.6198	53.8077	-40.2164	-22.2126	43.0646	-46.047	-43.5888	31.2168	-51.8646	-68.6171	98.6947	-17.5414	-67.3169	85.1254	-12.4987	-97.1554	78.1257	-21.0761	-118.023	122.83	-26.8553	-73.9044	122.89	-31.422	-101.899	112.869	-50.5894	-132.334	126.607	-57.3745	-68.5092	116.309	-78.0188	-84.9917	90.6903	-101.596	-77.2194	135.618	-75.6245	-54.5539	117.292	-95.4596	-60.2024	97.0801	-96.0098	-38.5349	139.135	-41.7856	-12.0666	136.65	-42.8857	17.3249	109.766	-22.5064	-1.79192	
35	0.291667	75.7449	-36.2642	6.33631	54.7068	-40.7423	-23.5857	39.5072	-45.1653	-45.2634	35.519	-53.8911	-67.0499	94.9701	-14.2759	-68.7289	89.6672	-15.37	-93.8758	76.7723	-20.4189	-117.445	125.225	-28.0623	-74.7154	123.768	-32.8154	-103.67	115.912	-51.3017	-130.951	129.241	-59.6364	-66.8149	111.943	-79.5496	-86.4303	92.0412	-104.774	-76.0596	134.93	-76.0936	-56.7591	118.706	-93.1577	-61.746	98.3251	-96.3875	-37.8991	137.685	-37.8772	-12.9182	137.461	-42.752	19.4951	112.774	-23.3291	-0.376622	
36	0.3	75.6381	-35.5287	2.44621	56.4427	-42.3365	-19.9656	40.4536	-45.101	-49.6076	33.6874	-53.6354	-68.0518	98.8486	-16.721	-68.3734	87.2276	-13.2332	-94.2919	80.084	-22.7546	-117.675	122.424	-27.0015	-74.2209	123.227	-33.1631	-102.121	111.445	-49.8293	-133.523	127.736	-58.4164	-66.9408	112.427	-81.2482	-85.543	91.2821	-102.67	-76.2674	137.93	-76.7286	-52.7217	115.204	-97.4059	-60.524	97.9456	-98.3032	-42.3268	136.746	-40.2082	-13.2757	136.951	-40.862	14.0606	111.411	-23.4675	2.2021	
